<svg width="27" height="27" viewBox="0 0 27 27" fill="none" xmlns="http://www.w3.org/2000/svg">
<path d="M19.0479 18.8921L15.2448 23.8589C15.0444 24.1208 14.7819 24.3338 14.4787 24.4806C14.1755 24.6275 13.8402 24.704 13.5001 24.704C13.16 24.704 12.8248 24.6275 12.5216 24.4806C12.2184 24.3338 11.9559 24.1208 11.7554 23.8589L7.95234 18.8921C3.26452 19.5376 0 20.9748 0 22.6455C0 24.9194 6.04414 26.7628 13.5 26.7628C20.9559 26.7628 27 24.9194 27 22.6455C27 20.9748 23.7357 19.5377 19.0479 18.8921Z" fill="white" fill-opacity="0.81"/>
<path d="M13.5 22.6452L20.618 13.3486C21.5768 12.0963 22.1532 10.6155 22.2834 9.07016C22.4135 7.52484 22.0923 5.97533 21.3554 4.59327C20.6184 3.21122 19.4944 2.05055 18.108 1.23984C16.7215 0.429123 15.1266 0 13.5 0C11.8734 0 10.2785 0.429123 8.89203 1.23984C7.50556 2.05055 6.38159 3.21122 5.64463 4.59327C4.90767 5.97533 4.58647 7.52484 4.71663 9.07016C4.84678 10.6155 5.42319 12.0963 6.38203 13.3486L13.5 22.6452ZM13.5 4.67066C14.2736 4.67066 15.0297 4.88929 15.6729 5.29888C16.3161 5.70848 16.8174 6.29066 17.1134 6.9718C17.4095 7.65293 17.4869 8.40244 17.336 9.12553C17.1851 9.84862 16.8126 10.5128 16.2656 11.0341C15.7186 11.5555 15.0217 11.9105 14.263 12.0543C13.5043 12.1981 12.7179 12.1243 12.0033 11.8422C11.2886 11.56 10.6778 11.0823 10.248 10.4693C9.81824 9.85626 9.58886 9.13556 9.58886 8.3983C9.58886 7.40967 10.0009 6.46153 10.7344 5.76247C11.4679 5.0634 12.4627 4.67066 13.5 4.67066Z" fill="white" fill-opacity="0.81"/>
</svg>
