<?xml version="1.0" ?><svg viewBox="0 0 256 256" xmlns="http://www.w3.org/2000/svg"><rect fill="none" height="256" width="256"/><path d="M205.3,71.1a15.5,15.5,0,0,1-5.3.9,16,16,0,0,1-16-16,15.5,15.5,0,0,1,.9-5.3A96,96,0,0,0,63.8,199.4h0A72,72,0,0,1,128,160a40,40,0,1,1,40-40,40,40,0,0,1-40,40,72,72,0,0,1,64.2,39.4A96,96,0,0,0,205.3,71.1Z" opacity="0.2"/><circle cx="128" cy="120" fill="none" r="40" stroke="#000" stroke-miterlimit="10" stroke-width="16"/><path d="M63.8,199.4a72,72,0,0,1,128.4,0" fill="none" stroke="#000" stroke-linecap="round" stroke-linejoin="round" stroke-width="16"/><circle cx="200" cy="56" fill="none" r="16" stroke="#000" stroke-linecap="round" stroke-linejoin="round" stroke-width="16"/><line fill="none" stroke="#000" stroke-linecap="round" stroke-linejoin="round" stroke-width="16" x1="200" x2="200" y1="40" y2="28"/><line fill="none" stroke="#000" stroke-linecap="round" stroke-linejoin="round" stroke-width="16" x1="186.1" x2="175.8" y1="48" y2="42"/><line fill="none" stroke="#000" stroke-linecap="round" stroke-linejoin="round" stroke-width="16" x1="186.1" x2="175.8" y1="64" y2="70"/><line fill="none" stroke="#000" stroke-linecap="round" stroke-linejoin="round" stroke-width="16" x1="200" x2="200" y1="72" y2="84"/><line fill="none" stroke="#000" stroke-linecap="round" stroke-linejoin="round" stroke-width="16" x1="213.9" x2="224.2" y1="64" y2="70"/><line fill="none" stroke="#000" stroke-linecap="round" stroke-linejoin="round" stroke-width="16" x1="213.9" x2="224.2" y1="48" y2="42"/><path d="M223.3,116.5A87.7,87.7,0,0,1,224,128a96,96,0,1,1-96-96,87,87,0,0,1,8.9.4" fill="none" stroke="#000" stroke-linecap="round" stroke-linejoin="round" stroke-width="16"/></svg>