<svg width="46" height="32" viewBox="0 0 46 32" fill="none" xmlns="http://www.w3.org/2000/svg">
<path d="M36.2308 16L27.074 25.5547C26.8623 25.7751 26.5336 25.9281 26.1599 25.98C25.7862 26.0318 25.3982 25.9784 25.0812 25.8313C24.7641 25.6843 24.544 25.4557 24.4691 25.1958C24.3942 24.9359 24.4707 24.666 24.6818 24.4453L31.8158 17H11.4971C11.1158 17 10.7502 16.8946 10.4806 16.7071C10.211 16.5196 10.0596 16.2652 10.0596 16C10.0596 15.7348 10.211 15.4804 10.4806 15.2929C10.7502 15.1054 11.1158 15 11.4971 15H31.8158L24.6818 7.5547C24.4745 7.33402 24.4008 7.06531 24.4768 6.80704C24.5529 6.54877 24.7724 6.32182 25.0877 6.17558C25.403 6.02934 25.7886 5.97563 26.1605 6.02614C26.5325 6.07665 26.8607 6.2273 27.0738 6.4453L36.2308 16Z" fill="#231F20"/>
</svg>
