<svg width="43" height="43" viewBox="0 0 43 43" fill="none" xmlns="http://www.w3.org/2000/svg">
<path fill-rule="evenodd" clip-rule="evenodd" d="M21.5 32.25C27.437 32.25 32.25 27.437 32.25 21.5C32.25 15.5629 27.437 10.75 21.5 10.75C15.5629 10.75 10.75 15.5629 10.75 21.5C10.75 27.437 15.5629 32.25 21.5 32.25ZM21.5 28.6667C25.458 28.6667 28.6667 25.458 28.6667 21.5C28.6667 17.542 25.458 14.3333 21.5 14.3333C17.542 14.3333 14.3333 17.542 14.3333 21.5C14.3333 25.458 17.542 28.6667 21.5 28.6667Z" fill="white" fill-opacity="0.6"/>
<path d="M32.25 8.9585C31.2605 8.9585 30.4583 9.76066 30.4583 10.7502C30.4583 11.7397 31.2605 12.5418 32.25 12.5418C33.2395 12.5418 34.0417 11.7397 34.0417 10.7502C34.0417 9.76066 33.2395 8.9585 32.25 8.9585Z" fill="white" fill-opacity="0.6"/>
<path fill-rule="evenodd" clip-rule="evenodd" d="M2.96333 7.66111C1.79166 9.96066 1.79166 12.971 1.79166 18.9915V24.0082C1.79166 30.0287 1.79166 33.0391 2.96333 35.3385C3.99397 37.3613 5.63851 39.0059 7.66126 40.0364C9.96082 41.2082 12.9711 41.2082 18.9917 41.2082H24.0083C30.0289 41.2082 33.0392 41.2082 35.3386 40.0364C37.3614 39.0059 39.006 37.3613 40.0366 35.3385C41.2083 33.0391 41.2083 30.0287 41.2083 24.0082V18.9915C41.2083 12.971 41.2083 9.96066 40.0366 7.66111C39.006 5.63836 37.3614 3.99382 35.3386 2.96318C33.0392 1.7915 30.0289 1.7915 24.0083 1.7915H18.9917C12.9711 1.7915 9.96082 1.7915 7.66126 2.96318C5.63851 3.99382 3.99397 5.63836 2.96333 7.66111ZM24.0083 5.37484H18.9917C15.9222 5.37484 13.8357 5.37763 12.2229 5.50939C10.6519 5.63775 9.8485 5.87039 9.28806 6.15595C7.93956 6.84306 6.84321 7.93941 6.1561 9.28791C5.87055 9.84834 5.6379 10.6517 5.50954 12.2227C5.37779 13.8355 5.37499 15.9221 5.37499 18.9915V24.0082C5.37499 27.0777 5.37779 29.1641 5.50954 30.7769C5.6379 32.348 5.87055 33.1514 6.1561 33.7118C6.84321 35.0602 7.93956 36.1566 9.28806 36.8437C9.8485 37.1293 10.6519 37.362 12.2229 37.4903C13.8357 37.622 15.9222 37.6248 18.9917 37.6248H24.0083C27.0778 37.6248 29.1642 37.622 30.7771 37.4903C32.3482 37.362 33.1516 37.1293 33.712 36.8437C35.0604 36.1566 36.1567 35.0602 36.8438 33.7118C37.1294 33.1514 37.3622 32.348 37.4904 30.7769C37.6221 29.1641 37.625 27.0777 37.625 24.0082V18.9915C37.625 15.9221 37.6221 13.8355 37.4904 12.2227C37.3622 10.6517 37.1294 9.84834 36.8438 9.28791C36.1567 7.93941 35.0604 6.84306 33.712 6.15595C33.1516 5.87039 32.3482 5.63775 30.7771 5.50939C29.1642 5.37763 27.0778 5.37484 24.0083 5.37484Z" fill="white" fill-opacity="0.6"/>
</svg>
