<?xml version="1.0" ?><svg id="Layer_1" style="enable-background:new 0 0 50 50;" version="1.1" viewBox="0 0 50 50" xml:space="preserve" xmlns="http://www.w3.org/2000/svg" xmlns:xlink="http://www.w3.org/1999/xlink"><style type="text/css">
	.st0{fill:#F0C4DB;}
	.st1{fill:#FF9D9C;}
	.st2{fill:#9BEAF9;}
	.st3{fill:#E9F4BC;}
	.st4{fill:#505050;}
	.st5{fill:#FEBECC;}
	.st6{fill:#FFFFFF;}
	.st7{fill:#FDE4A1;}
	.st8{fill:#FEE7B5;}
	.st9{fill:#CDF6FC;}
	.st10{fill:#F2C6DD;}
	.st11{opacity:0.1;}
</style><g><path class="st5" d="M2.27,27.96c2.43,0.98,5.08,1.54,7.87,1.54c11.6,0,21-9.4,21-21c0-2.62-0.5-5.13-1.38-7.44H2.27V27.96z"/><g><path class="st2" d="M37.95,12.32h9.03c0.01,0,0.01,0,0.01,0.01V38.3H5.55V12.32h8.93"/><path class="st3" d="M19.42,23.56h13.7c2.99-2.14,4.94-5.63,4.94-9.58c0-6.51-5.28-11.79-11.79-11.79S14.48,7.47,14.48,13.98    C14.48,17.94,16.43,21.43,19.42,23.56z"/><rect class="st6" height="4.35" width="41.43" x="5.56" y="38.3"/><polygon class="st1" points="20.45,42.66 32.09,42.66 35.45,48.19 17.09,48.19   "/><g><circle class="st4" cx="39" cy="38.3" r="0.75"/><path class="st4" d="M47.73,12.32c0-0.21-0.09-0.41-0.25-0.56h-0.01c-0.13-0.13-0.31-0.2-0.5-0.2h-8.41     C37.44,5.8,32.35,1.44,26.27,1.44S15.1,5.8,13.97,11.56H5.55c-0.2,0-0.39,0.08-0.53,0.22c-0.14,0.14-0.22,0.34-0.22,0.53l0,30.34     c0,0.41,0.34,0.75,0.75,0.75h13.56l-2.45,4.04h-3.23c-0.41,0-0.75,0.34-0.75,0.75s0.34,0.75,0.75,0.75H39.1     c0.41,0,0.75-0.34,0.75-0.75s-0.34-0.75-0.75-0.75h-3.23l-2.45-4.04h13.56c0.41,0,0.75-0.34,0.75-0.75L47.73,12.32z M18.42,47.44     l2.45-4.04h10.8l2.45,4.04H18.42z M26.27,2.94c6.09,0,11.04,4.95,11.04,11.04c0,3.47-1.65,6.75-4.44,8.83H19.67     c-2.78-2.08-4.43-5.37-4.43-8.83C15.23,7.9,20.18,2.94,26.27,2.94z M6.3,41.9v-2.85H37c0.41,0,0.75-0.34,0.75-0.75     c0-0.41-0.34-0.75-0.75-0.75H6.3V13.06h7.48c-0.02,0.3-0.05,0.61-0.05,0.92c0,3.33,1.36,6.5,3.68,8.83h-1.79     c-0.41,0-0.75,0.34-0.75,0.75s0.34,0.75,0.75,0.75h21.29c0.41,0,0.75-0.34,0.75-0.75s-0.34-0.75-0.75-0.75h-1.79     c2.33-2.33,3.68-5.5,3.68-8.83c0-0.31-0.02-0.61-0.05-0.92h7.47v24.49H41c-0.42,0-0.75,0.34-0.75,0.75     c0,0.41,0.33,0.75,0.75,0.75h5.23v2.85H6.3z"/><path class="st4" d="M26.27,18.17c-0.95,0-1.73-0.77-1.73-1.73c0-0.41-0.34-0.75-0.75-0.75s-0.75,0.34-0.75,0.75     c0,1.52,1.06,2.79,2.48,3.13v0.62c0,0.41,0.34,0.75,0.75,0.75s0.75-0.34,0.75-0.75v-0.62c1.42-0.34,2.48-1.61,2.48-3.13     c0-1.78-1.45-3.23-3.23-3.23c-0.95,0-1.73-0.77-1.73-1.73c0-0.95,0.77-1.73,1.73-1.73s1.73,0.77,1.73,1.73     c0,0.41,0.34,0.75,0.75,0.75s0.75-0.34,0.75-0.75c0-1.52-1.06-2.79-2.48-3.13V7.75c0-0.41-0.34-0.75-0.75-0.75     s-0.75,0.34-0.75,0.75v0.62c-1.42,0.34-2.48,1.61-2.48,3.13c0,1.78,1.45,3.23,3.23,3.23c0.95,0,1.73,0.77,1.73,1.73     S27.22,18.17,26.27,18.17z"/></g></g></g></svg>