<svg width="27" height="27" viewBox="0 0 27 27" fill="none" xmlns="http://www.w3.org/2000/svg">
<path d="M5.4375 11.5897C7.5975 15.7973 11.07 19.2393 15.3225 21.3803L18.6225 18.1019C19.035 17.693 19.6275 17.5741 20.145 17.7376C21.825 18.2877 23.6325 18.5851 25.5 18.5851C26.3325 18.5851 27 19.2467 27 20.0719V25.2757C27 26.1009 26.3325 26.7625 25.5 26.7625C11.415 26.7625 0 15.4479 0 1.48681C0 0.661629 0.675 0 1.5 0H6.75C7.5825 0 8.25 0.661629 8.25 1.48681C8.25 3.33788 8.55 5.12948 9.105 6.79471C9.27 7.30765 9.15 7.89494 8.7375 8.30381L5.4375 11.5897Z" fill="white" fill-opacity="0.81"/>
</svg>
