<svg width="28" height="26" viewBox="0 0 28 26" fill="none" xmlns="http://www.w3.org/2000/svg">
<path d="M14 0L17.1432 9.67376H27.3148L19.0858 15.6525L22.229 25.3262L14 19.3475L5.77101 25.3262L8.9142 15.6525L0.685208 9.67376H10.8568L14 0Z" fill="white"/>
<path d="M14 1.61804L16.6677 9.82827L16.7799 10.1738H17.1432H25.776L18.7919 15.248L18.498 15.4615L18.6103 15.807L21.2779 24.0172L14.2939 18.943L14 18.7295L13.7061 18.943L6.72206 24.0172L9.38973 15.807L9.50199 15.4615L9.20809 15.248L2.22405 10.1738H10.8568H11.2201L11.3323 9.82827L14 1.61804Z" stroke="black" stroke-opacity="0.46"/>
</svg>
