<svg width="36" height="42" viewBox="0 0 36 42" fill="none" xmlns="http://www.w3.org/2000/svg">
<g clip-path="url(#clip0_33_109)">
<path d="M30.6222 8.27411C28.3987 6.82434 26.7943 4.5039 26.2937 1.8006C26.1856 1.21669 26.1255 0.615152 26.1255 0H19.0289L19.0168 28.442C18.8983 31.6275 16.2767 34.1834 13.0632 34.1834C12.0643 34.1834 11.124 33.9343 10.2958 33.4977C8.39666 32.4989 7.09667 30.5085 7.09667 28.2185C7.09667 24.9289 9.77355 22.252 13.0624 22.252C13.6767 22.252 14.2654 22.3537 14.8221 22.5275V15.2827C14.2454 15.2034 13.6599 15.1553 13.0624 15.1553C5.85996 15.1553 0 21.0145 0 28.2185C0 32.6375 2.2075 36.5487 5.57722 38.9132C7.69821 40.4038 10.2798 41.2809 13.0632 41.2809C20.2664 41.2809 26.1255 35.4209 26.1255 28.2185V13.7953C28.9089 15.7929 32.3195 16.9703 36 16.9703V9.87287C34.0176 9.87287 32.1713 9.28415 30.6222 8.27411Z" fill="white" fill-opacity="0.6"/>
</g>
<defs>
<clipPath id="clip0_33_109">
<rect width="36" height="41.2809" fill="white"/>
</clipPath>
</defs>
</svg>
